<svg width="459" height="74" viewBox="0 0 459 74" fill="none" xmlns="http://www.w3.org/2000/svg">
<g clip-path="url(#clip0_9102_5650)">
<path d="M74 0H0V74H74V0Z" fill="#FE0000"/>
<path d="M53.253 21.4406C52.9463 21.1867 52.7471 21.1133 52.0038 21.0377C50.2599 20.9974 48.7825 20.9688 47.1434 21.0636C46.7573 21.1039 46.2887 21.2458 45.9312 21.3939C44.48 22.0271 43.5114 23.3235 43.1978 24.8709C42.1147 28.6332 41.0457 32.398 39.9646 36.162C39.258 38.6527 38.5238 41.1388 37.8296 43.6303C37.6677 44.1393 37.4564 44.9586 36.9997 45.0178C36.6081 45.0056 36.3317 44.1393 36.1698 43.6303C35.4756 41.1388 34.7418 38.6527 34.0349 36.162C32.9537 32.398 31.8847 28.6335 30.8017 24.8709C30.488 23.3235 29.5195 22.0271 28.0682 21.3939C27.7108 21.2461 27.2422 21.1041 26.8561 21.0636C25.2169 20.9688 23.7398 20.9974 21.9959 21.0377C21.2526 21.1133 21.0535 21.1867 20.7468 21.4406C19.9919 21.9774 19.9428 22.8243 20.0336 23.6817C20.2755 24.578 20.629 25.4394 20.9147 26.3227L20.923 26.3177C22.7328 31.6067 24.5804 36.8781 26.4026 42.1608C27.2124 44.5291 28.0495 46.888 28.8515 49.2584C29.2903 50.4972 29.7112 51.7429 30.1494 52.9818C30.3477 53.5422 30.7826 54.6661 31.5339 55.4996C31.9035 55.8622 32.78 56.4104 32.78 56.4104C33.6013 56.8502 34.5297 56.9422 35.447 56.9219C35.8747 56.9189 36.3028 56.9147 36.7306 56.9161L37 56.9033L37.2694 56.9161C37.6972 56.915 38.1253 56.9189 38.553 56.9219C39.4703 56.9422 40.3987 56.8505 41.22 56.4104C41.22 56.4104 42.0965 55.8622 42.4661 55.4996C43.2174 54.6661 43.6523 53.5422 43.8506 52.9818C44.2888 51.7429 44.7097 50.4972 45.1485 49.2584C45.9505 46.888 46.7876 44.5294 47.5973 42.1608C49.4193 36.8781 51.2672 31.6067 53.077 26.3177L53.0853 26.3227C53.371 25.4396 53.7245 24.5783 53.9664 23.6817C54.0572 22.824 54.0078 21.9777 53.253 21.4406Z" fill="white"/>
</g>
<path d="M101.688 22L108.844 45.4375H109.109L116.266 22H124.922L114.125 54H103.828L93.0312 22H101.688ZM137.102 22V54H129.367V22H137.102ZM142.957 54V22H165.27V28.2812H150.691V34.8437H164.129V41.1406H150.691V47.7187H165.27V54H142.957ZM178.785 54L169.473 22H178.02L182.848 42.9687H183.113L188.629 22H195.598L201.113 43.0156H201.379L206.223 22H214.754L205.457 54H198.004L192.238 34.5937H191.988L186.223 54H178.785ZM235.859 31.5937C235.755 30.4479 235.292 29.5573 234.469 28.9219C233.656 28.276 232.495 27.9531 230.984 27.9531C229.984 27.9531 229.151 28.0833 228.484 28.3437C227.818 28.6042 227.318 28.9635 226.984 29.4219C226.651 29.8698 226.479 30.3854 226.469 30.9688C226.448 31.4479 226.542 31.8698 226.75 32.2344C226.969 32.599 227.281 32.9219 227.688 33.2031C228.104 33.474 228.604 33.7135 229.188 33.9219C229.771 34.1302 230.427 34.3125 231.156 34.4687L233.906 35.0938C235.49 35.4375 236.885 35.8958 238.094 36.4688C239.313 37.0417 240.333 37.724 241.156 38.5156C241.99 39.3073 242.62 40.2187 243.047 41.25C243.474 42.2812 243.693 43.4375 243.703 44.7188C243.693 46.7396 243.182 48.474 242.172 49.9219C241.161 51.3698 239.708 52.4792 237.813 53.25C235.927 54.0208 233.651 54.4063 230.984 54.4063C228.307 54.4063 225.974 54.0052 223.984 53.2031C221.995 52.401 220.448 51.1823 219.344 49.5469C218.24 47.9115 217.672 45.8437 217.641 43.3438H225.047C225.109 44.375 225.385 45.2344 225.875 45.9219C226.365 46.6094 227.036 47.1302 227.891 47.4844C228.755 47.8385 229.755 48.0156 230.891 48.0156C231.932 48.0156 232.818 47.875 233.547 47.5937C234.286 47.3125 234.854 46.9219 235.25 46.4219C235.646 45.9219 235.849 45.349 235.859 44.7031C235.849 44.099 235.661 43.5833 235.297 43.1562C234.932 42.7187 234.37 42.3437 233.609 42.0312C232.859 41.7083 231.901 41.4115 230.734 41.1406L227.391 40.3594C224.62 39.724 222.438 38.6979 220.844 37.2812C219.25 35.8542 218.458 33.9271 218.469 31.5C218.458 29.5208 218.99 27.7865 220.063 26.2969C221.135 24.8073 222.62 23.6458 224.516 22.8125C226.411 21.9792 228.573 21.5625 231 21.5625C233.479 21.5625 235.63 21.9844 237.453 22.8281C239.286 23.6615 240.708 24.8333 241.719 26.3438C242.729 27.8542 243.245 29.6042 243.266 31.5937H235.859ZM247.562 28.2812V22H274.609V28.2812H264.906V54H257.281V28.2812H247.562ZM282.313 54H274L284.797 22H295.094L305.891 54H297.578L290.063 30.0625H289.812L282.313 54ZM281.203 41.4062H298.578V47.2812H281.203V41.4062ZM305.293 28.2812V22H332.34V28.2812H322.637V54H315.012V28.2812H305.293ZM354.414 31.5937C354.31 30.4479 353.846 29.5573 353.023 28.9219C352.211 28.276 351.049 27.9531 349.539 27.9531C348.539 27.9531 347.706 28.0833 347.039 28.3437C346.372 28.6042 345.872 28.9635 345.539 29.4219C345.206 29.8698 345.034 30.3854 345.023 30.9688C345.003 31.4479 345.096 31.8698 345.305 32.2344C345.523 32.599 345.836 32.9219 346.242 33.2031C346.659 33.474 347.159 33.7135 347.742 33.9219C348.326 34.1302 348.982 34.3125 349.711 34.4687L352.461 35.0938C354.044 35.4375 355.44 35.8958 356.648 36.4688C357.867 37.0417 358.888 37.724 359.711 38.5156C360.544 39.3073 361.174 40.2187 361.602 41.25C362.029 42.2812 362.247 43.4375 362.258 44.7188C362.247 46.7396 361.737 48.474 360.727 49.9219C359.716 51.3698 358.263 52.4792 356.367 53.25C354.482 54.0208 352.206 54.4063 349.539 54.4063C346.862 54.4063 344.529 54.0052 342.539 53.2031C340.549 52.401 339.003 51.1823 337.898 49.5469C336.794 47.9115 336.227 45.8437 336.195 43.3438H343.602C343.664 44.375 343.94 45.2344 344.43 45.9219C344.919 46.6094 345.591 47.1302 346.445 47.4844C347.31 47.8385 348.31 48.0156 349.445 48.0156C350.487 48.0156 351.372 47.875 352.102 47.5937C352.841 47.3125 353.409 46.9219 353.805 46.4219C354.201 45.9219 354.404 45.349 354.414 44.7031C354.404 44.099 354.216 43.5833 353.852 43.1562C353.487 42.7187 352.924 42.3437 352.164 42.0312C351.414 41.7083 350.456 41.4115 349.289 41.1406L345.945 40.3594C343.174 39.724 340.992 38.6979 339.398 37.2812C337.805 35.8542 337.013 33.9271 337.023 31.5C337.013 29.5208 337.544 27.7865 338.617 26.2969C339.69 24.8073 341.174 23.6458 343.07 22.8125C344.966 21.9792 347.128 21.5625 349.555 21.5625C352.034 21.5625 354.185 21.9844 356.008 22.8281C357.841 23.6615 359.263 24.8333 360.273 26.3438C361.284 27.8542 361.799 29.6042 361.82 31.5937H354.414Z" fill="#FF0000"/>
<path d="M101.688 22L108.844 45.4375H109.109L116.266 22H124.922L114.125 54H103.828L93.0312 22H101.688ZM137.102 22V54H129.367V22H137.102ZM142.957 54V22H165.27V28.2812H150.691V34.8437H164.129V41.1406H150.691V47.7187H165.27V54H142.957ZM178.785 54L169.473 22H178.02L182.848 42.9687H183.113L188.629 22H195.598L201.113 43.0156H201.379L206.223 22H214.754L205.457 54H198.004L192.238 34.5937H191.988L186.223 54H178.785ZM235.859 31.5937C235.755 30.4479 235.292 29.5573 234.469 28.9219C233.656 28.276 232.495 27.9531 230.984 27.9531C229.984 27.9531 229.151 28.0833 228.484 28.3437C227.818 28.6042 227.318 28.9635 226.984 29.4219C226.651 29.8698 226.479 30.3854 226.469 30.9688C226.448 31.4479 226.542 31.8698 226.75 32.2344C226.969 32.599 227.281 32.9219 227.688 33.2031C228.104 33.474 228.604 33.7135 229.188 33.9219C229.771 34.1302 230.427 34.3125 231.156 34.4687L233.906 35.0938C235.49 35.4375 236.885 35.8958 238.094 36.4688C239.313 37.0417 240.333 37.724 241.156 38.5156C241.99 39.3073 242.62 40.2187 243.047 41.25C243.474 42.2812 243.693 43.4375 243.703 44.7188C243.693 46.7396 243.182 48.474 242.172 49.9219C241.161 51.3698 239.708 52.4792 237.813 53.25C235.927 54.0208 233.651 54.4063 230.984 54.4063C228.307 54.4063 225.974 54.0052 223.984 53.2031C221.995 52.401 220.448 51.1823 219.344 49.5469C218.24 47.9115 217.672 45.8437 217.641 43.3438H225.047C225.109 44.375 225.385 45.2344 225.875 45.9219C226.365 46.6094 227.036 47.1302 227.891 47.4844C228.755 47.8385 229.755 48.0156 230.891 48.0156C231.932 48.0156 232.818 47.875 233.547 47.5937C234.286 47.3125 234.854 46.9219 235.25 46.4219C235.646 45.9219 235.849 45.349 235.859 44.7031C235.849 44.099 235.661 43.5833 235.297 43.1562C234.932 42.7187 234.37 42.3437 233.609 42.0312C232.859 41.7083 231.901 41.4115 230.734 41.1406L227.391 40.3594C224.62 39.724 222.438 38.6979 220.844 37.2812C219.25 35.8542 218.458 33.9271 218.469 31.5C218.458 29.5208 218.99 27.7865 220.063 26.2969C221.135 24.8073 222.62 23.6458 224.516 22.8125C226.411 21.9792 228.573 21.5625 231 21.5625C233.479 21.5625 235.63 21.9844 237.453 22.8281C239.286 23.6615 240.708 24.8333 241.719 26.3438C242.729 27.8542 243.245 29.6042 243.266 31.5937H235.859ZM247.562 28.2812V22H274.609V28.2812H264.906V54H257.281V28.2812H247.562ZM282.313 54H274L284.797 22H295.094L305.891 54H297.578L290.063 30.0625H289.812L282.313 54ZM281.203 41.4062H298.578V47.2812H281.203V41.4062ZM305.293 28.2812V22H332.34V28.2812H322.637V54H315.012V28.2812H305.293ZM354.414 31.5937C354.31 30.4479 353.846 29.5573 353.023 28.9219C352.211 28.276 351.049 27.9531 349.539 27.9531C348.539 27.9531 347.706 28.0833 347.039 28.3437C346.372 28.6042 345.872 28.9635 345.539 29.4219C345.206 29.8698 345.034 30.3854 345.023 30.9688C345.003 31.4479 345.096 31.8698 345.305 32.2344C345.523 32.599 345.836 32.9219 346.242 33.2031C346.659 33.474 347.159 33.7135 347.742 33.9219C348.326 34.1302 348.982 34.3125 349.711 34.4687L352.461 35.0938C354.044 35.4375 355.44 35.8958 356.648 36.4688C357.867 37.0417 358.888 37.724 359.711 38.5156C360.544 39.3073 361.174 40.2187 361.602 41.25C362.029 42.2812 362.247 43.4375 362.258 44.7188C362.247 46.7396 361.737 48.474 360.727 49.9219C359.716 51.3698 358.263 52.4792 356.367 53.25C354.482 54.0208 352.206 54.4063 349.539 54.4063C346.862 54.4063 344.529 54.0052 342.539 53.2031C340.549 52.401 339.003 51.1823 337.898 49.5469C336.794 47.9115 336.227 45.8437 336.195 43.3438H343.602C343.664 44.375 343.94 45.2344 344.43 45.9219C344.919 46.6094 345.591 47.1302 346.445 47.4844C347.31 47.8385 348.31 48.0156 349.445 48.0156C350.487 48.0156 351.372 47.875 352.102 47.5937C352.841 47.3125 353.409 46.9219 353.805 46.4219C354.201 45.9219 354.404 45.349 354.414 44.7031C354.404 44.099 354.216 43.5833 353.852 43.1562C353.487 42.7187 352.924 42.3437 352.164 42.0312C351.414 41.7083 350.456 41.4115 349.289 41.1406L345.945 40.3594C343.174 39.724 340.992 38.6979 339.398 37.2812C337.805 35.8542 337.013 33.9271 337.023 31.5C337.013 29.5208 337.544 27.7865 338.617 26.2969C339.69 24.8073 341.174 23.6458 343.07 22.8125C344.966 21.9792 347.128 21.5625 349.555 21.5625C352.034 21.5625 354.185 21.9844 356.008 22.8281C357.841 23.6615 359.263 24.8333 360.273 26.3438C361.284 27.8542 361.799 29.6042 361.82 31.5937H354.414Z" fill="#FF0000"/>
<rect x="388" y="20" width="70" height="34" rx="17" fill="#FF0000"/>
<path d="M401.707 43.4152V31.0515H406.863C407.788 31.0515 408.563 31.1823 409.187 31.4439C409.815 31.7055 410.285 32.0718 410.599 32.5426C410.917 33.0135 411.076 33.5589 411.076 34.1787C411.076 34.6495 410.978 35.0701 410.781 35.4404C410.583 35.8066 410.312 36.1105 409.966 36.352C409.619 36.5934 409.219 36.7625 408.764 36.8591V36.9798C409.263 37.0039 409.724 37.1388 410.147 37.3843C410.573 37.6298 410.915 37.9719 411.173 38.4105C411.43 38.8452 411.559 39.3604 411.559 39.956C411.559 40.6201 411.39 41.2137 411.052 41.7369C410.714 42.2561 410.225 42.6666 409.585 42.9684C408.945 43.2663 408.169 43.4152 407.255 43.4152H401.707ZM404.695 41.0064H406.543C407.191 41.0064 407.667 40.8837 407.973 40.6382C408.283 40.3927 408.438 40.0506 408.438 39.6119C408.438 39.2939 408.364 39.0203 408.215 38.7909C408.066 38.5574 407.855 38.3783 407.581 38.2536C407.307 38.1248 406.979 38.0604 406.597 38.0604H404.695V41.0064ZM404.695 36.1346H406.349C406.675 36.1346 406.965 36.0803 407.219 35.9716C407.472 35.863 407.669 35.706 407.81 35.5007C407.955 35.2955 408.028 35.048 408.028 34.7582C408.028 34.3437 407.881 34.0177 407.587 33.7802C407.293 33.5428 406.897 33.424 406.398 33.424H404.695V36.1346ZM413.196 43.4152V31.0515H421.817V33.4784H416.184V36.0139H421.376V38.4468H416.184V40.9883H421.817V43.4152H413.196ZM423.484 33.4784V31.0515H433.934V33.4784H430.185V43.4152H427.239V33.4784H423.484ZM436.724 43.4152H433.512L437.683 31.0515H441.662L445.833 43.4152H442.622L439.718 34.1666H439.621L436.724 43.4152ZM436.295 38.5494H443.008V40.8193H436.295V38.5494Z" fill="white"/>
<defs>
<clipPath id="clip0_9102_5650">
<rect width="74" height="74" rx="37" fill="white"/>
</clipPath>
</defs>
</svg>
