<svg width="128" height="128" viewBox="0 0 128 128" fill="none" xmlns="http://www.w3.org/2000/svg">
<g clipPath="url(#clip0_10128_5977)">
<path d="M128 0H0V128H128V0Z" fill="#FE0000"/>
<path d="M92.1132 37.0864C91.5827 36.6472 91.2383 36.5203 89.9525 36.3896C86.9361 36.3199 84.3805 36.2704 81.5454 36.4343C80.8775 36.504 80.0669 36.7496 79.4486 37.0058C76.9384 38.101 75.2629 40.3434 74.7206 43.0199C72.847 49.5277 70.9981 56.0398 69.128 62.5505C67.9057 66.8587 66.6357 71.1591 65.435 75.4686C65.1549 76.3491 64.7895 77.7663 63.9996 77.8687C63.3221 77.8475 62.8441 76.3491 62.564 75.4686C61.3633 71.1591 60.0939 66.8587 58.8712 62.5505C57.0011 56.0398 55.152 49.5282 53.2786 43.0199C52.7361 40.3434 51.0607 38.101 48.5504 37.0058C47.9321 36.75 47.1216 36.5044 46.4538 36.4343C43.6185 36.2704 41.0635 36.3199 38.0469 36.3896C36.7613 36.5203 36.4169 36.6472 35.8863 37.0864C34.5806 38.015 34.4957 39.4798 34.6526 40.963C35.0711 42.5133 35.6826 44.0033 36.1768 45.5311L36.1912 45.5225C39.3217 54.6711 42.5175 63.7891 45.6695 72.9267C47.07 77.0233 48.518 81.1037 49.9053 85.2037C50.6643 87.3466 51.3923 89.5012 52.1503 91.6442C52.4933 92.6135 53.2456 94.5576 54.5451 95.9993C55.1844 96.6266 56.7005 97.5748 56.7005 97.5748C58.1211 98.3356 59.727 98.4947 61.3137 98.4595C62.0536 98.4543 62.7941 98.4471 63.534 98.4495L64 98.4273L64.4661 98.4495C65.206 98.4475 65.9464 98.4543 66.6863 98.4595C68.273 98.4947 69.8789 98.336 71.2995 97.5748C71.2995 97.5748 72.8156 96.6266 73.4549 95.9993C74.7544 94.5576 75.5067 92.6135 75.8497 91.6442C76.6077 89.5012 77.3358 87.3466 78.0947 85.2037C79.482 81.1037 80.93 77.0239 82.3306 72.9267C85.482 63.7891 88.6784 54.6711 91.8089 45.5225L91.8232 45.5311C92.3174 44.0037 92.9289 42.5139 93.3474 40.963C93.5043 39.4794 93.4189 38.0154 92.1132 37.0864Z" fill="white"/>
</g>
<defs>
<clipPath id="clip0_10128_5977">
<rect width="128" height="128" rx="64" fill="white"/>
</clipPath>
</defs>
</svg>
